<svg width="160" height="56" viewBox="0 0 160 56" fill="none" xmlns="http://www.w3.org/2000/svg">
<g filter="url(#filter0_d_31_6)">
<path d="M76.4336 40.0312C76.4023 40.0859 76.2773 40.3086 76.0586 40.6992C75.8477 41.0898 75.5117 41.4453 75.0508 41.7656C74.5898 42.0781 74.0586 42.2344 73.457 42.2344C72.9883 42.2344 72.5508 42.1484 72.1445 41.9766C71.7461 41.8047 71.4141 41.5469 71.1484 41.2031C70.8828 40.8594 70.7188 40.4453 70.6562 39.9609C70.5781 39.375 70.4961 38.125 70.4102 36.2109C70.3242 34.6016 70.2812 32.7773 70.2812 30.7383C70.2812 29.7383 70.293 28.918 70.3164 28.2773L70.0938 28.2422L67.8203 38.2148C68.0234 38.6445 68.1797 39.0859 68.2891 39.5391C68.3984 39.9922 68.5078 40.5508 68.6172 41.2148L68.6875 41.5898C68.3906 41.8008 68.043 41.957 67.6445 42.0586C67.2461 42.168 66.8203 42.2227 66.3672 42.2227C65.7812 42.2227 65.207 42.1367 64.6445 41.9648C64.0898 41.793 63.6367 41.5625 63.2852 41.2734C63.2852 40.875 63.3203 40.4023 63.3906 39.8555C63.4688 39.3086 63.5938 38.9062 63.7656 38.6484L60.3789 28.2305L60.1562 28.3125C60.25 28.75 60.3945 29.668 60.5898 31.0664C60.7852 32.4648 60.9609 33.9219 61.1172 35.4375C61.2812 36.9453 61.3711 38.1641 61.3867 39.0938C61.4023 40.0312 61.1953 40.7891 60.7656 41.3672C60.3359 41.9453 59.6406 42.2344 58.6797 42.2344H58.6094H58.457C57.7852 42.2188 57.168 42.043 56.6055 41.707C56.043 41.3633 55.6523 40.9062 55.4336 40.3359L55.9609 38.4258L57.2617 38.5312V38.4258L58.0703 28.2305L56.0898 27.6328C56.1523 26.8047 56.3438 26.0625 56.6641 25.4062C56.9922 24.75 57.5312 24.2305 58.2812 23.8477C58.6953 23.9023 59.2969 24.0469 60.0859 24.2812C60.875 24.5078 61.6719 24.793 62.4766 25.1367C63.2891 25.4805 63.9453 25.8438 64.4453 26.2266L66.4609 35.4844L66.5547 35.4727L66.8594 32.8945C67.1406 31.2383 67.4453 29.5859 67.7734 27.9375C67.2578 27.7188 66.875 27.5352 66.625 27.3867C66.6953 26.6289 66.9453 25.9258 67.375 25.2773C67.8047 24.6211 68.3945 24.1445 69.1445 23.8477C69.5586 23.9023 70.168 24.1016 70.9727 24.4453C71.7773 24.7812 72.5586 25.168 73.3164 25.6055C74.082 26.043 74.625 26.4336 74.9453 26.7773C74.8594 28.8555 74.7422 30.8867 74.5938 32.8711C74.4453 34.8477 74.207 36.6914 73.8789 38.4023L76.0586 38.0859L76.4336 40.0312Z" fill="white"/>
<path d="M88.0886 25.9922C89.1433 31.2188 89.8386 34.8594 90.1745 36.9141C90.5183 38.9609 90.6902 40.3359 90.6902 41.0391C90.6902 41.1797 90.6823 41.3672 90.6667 41.6016C89.987 42.0234 89.1706 42.2344 88.2175 42.2344C87.6237 42.2344 87.0652 42.1484 86.5417 41.9766C86.0261 41.8047 85.6316 41.5742 85.3581 41.2852L86.3073 38.0977L86.0847 37.0781H85.4519C84.4831 37.0234 83.4909 36.9531 82.4753 36.8672C82.3347 38.0312 82.1784 38.9688 82.0066 39.6797C81.8347 40.3906 81.53 40.9961 81.0925 41.4961C80.6628 41.9883 80.0534 42.2344 79.2644 42.2344C78.5769 42.2344 77.9402 42.0664 77.3542 41.7305C76.7683 41.3945 76.3659 40.9375 76.1472 40.3594L76.6745 38.4492L78.2214 38.5781L80.2605 28.3242C79.0183 28.1523 78.1198 27.9609 77.5652 27.75C77.5886 27.0703 77.7292 26.3516 77.987 25.5938C78.2527 24.8359 78.612 24.2539 79.0652 23.8477C81.948 24.3242 84.9558 25.0391 88.0886 25.9922ZM85.4753 34.3242L84.2566 28.7461L83.2488 28.6641C83.2097 29.3438 83.1433 30.2305 83.0495 31.3242C82.9636 32.418 82.862 33.5039 82.7448 34.582L85.4753 34.3242Z" fill="white"/>
<path d="M106.142 37.8984C106.119 38.4688 105.986 39.0547 105.744 39.6562C105.509 40.25 105.236 40.7617 104.923 41.1914C104.673 41.5352 104.369 41.7969 104.009 41.9766C103.65 42.1484 103.248 42.2344 102.802 42.2344C102.38 42.2344 101.904 42.1484 101.373 41.9766C100.076 41.5625 99.267 39.7539 98.9467 36.5508L95.8061 36.1289C96.0248 36.6445 96.2358 37.4805 96.4389 38.6367C96.6498 39.793 96.7905 40.8086 96.8608 41.6836C96.5952 41.8633 96.2827 42 95.9233 42.0938C95.5639 42.1875 95.1889 42.2344 94.7983 42.2344C94.2045 42.2344 93.6381 42.1406 93.0991 41.9531C92.56 41.7656 92.1498 41.5117 91.8686 41.1914C92.0483 40.3164 92.2045 39.6406 92.3373 39.1641C92.4702 38.6875 92.6342 38.1875 92.8295 37.6641C92.642 37.2812 92.4272 36.2539 92.185 34.582C91.9506 32.9023 91.7397 31.1445 91.5522 29.3086C91.3725 27.4648 91.2827 26.3008 91.2827 25.8164L91.2944 25.6758C91.6459 25.1992 92.1186 24.8164 92.7123 24.5273C93.3061 24.2305 93.9194 24.082 94.5522 24.082C95.2709 24.082 95.9116 24.2734 96.4741 24.6562L95.3608 30.4805L95.7006 30.6445L98.8295 24.0586C98.9936 24.0117 99.2163 23.9688 99.4975 23.9297C99.7866 23.8828 100.083 23.8594 100.388 23.8594C100.716 23.8594 101.119 23.9219 101.595 24.0469C102.08 24.1719 102.583 24.3633 103.107 24.6211C103.63 24.8711 104.111 25.1797 104.548 25.5469C104.564 26.7188 104.474 28.0273 104.279 29.4727C104.091 30.9102 103.806 32.2617 103.423 33.5273C102.97 34.1992 102.376 34.8438 101.642 35.4609C101.884 35.9141 102.126 36.3281 102.369 36.7031C102.619 37.0703 102.896 37.4062 103.201 37.7109C103.623 37.5625 104.158 37.2266 104.806 36.7031L106.142 37.8984ZM99.4038 28.5117C98.8725 29.3242 98.2397 30.3281 97.5053 31.5234C96.7709 32.7188 96.2709 33.5859 96.0053 34.125L99.7084 33.8672C99.9116 32.5469 100.013 31.2227 100.013 29.8945C100.013 29.4023 99.9936 28.9727 99.9545 28.6055L99.4038 28.5117Z" fill="white"/>
<path d="M117.879 29.2969C117.52 29.2969 117.051 29.2266 116.473 29.0859C115.903 28.9453 115.414 28.7773 115.008 28.582L114.305 35.1562L114.41 38.3203L116.988 37.1367L117.903 38.6836C117.817 39.0742 117.578 39.5547 117.188 40.125C116.805 40.6953 116.356 41.1914 115.84 41.6133C115.324 42.0352 114.828 42.2461 114.352 42.2461C113.781 42.2461 113.195 42.1289 112.594 41.8945C111.992 41.6523 111.481 41.3086 111.059 40.8633C110.645 40.418 110.41 39.9102 110.356 39.3398C110.34 39.1367 110.332 38.9844 110.332 38.8828C110.332 38.5234 110.36 38.1719 110.414 37.8281C110.469 37.4844 110.559 37.0234 110.684 36.4453C110.801 35.9531 110.887 35.5391 110.942 35.2031H110.965L110.262 27.7148L108.961 27.3867L108.481 30.6797C107.981 30.8516 107.508 30.9375 107.063 30.9375C106.617 30.9375 106.18 30.8477 105.75 30.668C105.586 30.168 105.442 29.6055 105.317 28.9805C105.184 28.3555 105.117 27.7695 105.117 27.2227C105.117 26.5664 105.223 26.0508 105.434 25.6758C105.84 25.1758 106.352 24.7617 106.969 24.4336C107.594 24.0977 108.192 23.9023 108.762 23.8477L113.906 25.1484L117.985 23.8477C118.344 24.0352 118.617 24.3594 118.805 24.8203C119 25.2812 119.098 25.7969 119.098 26.3672C119.098 26.9688 118.988 27.543 118.77 28.0898C118.559 28.6289 118.262 29.0312 117.879 29.2969Z" fill="white"/>
<path d="M118.706 25.6055C118.854 25.3711 119.116 25.1367 119.491 24.9023C119.866 24.668 120.311 24.4727 120.827 24.3164C121.35 24.1602 121.886 24.082 122.432 24.082C123.214 24.082 123.862 24.2383 124.378 24.5508L123.464 35.168C123.659 36.0977 123.827 37.1484 123.968 38.3203C124.116 39.4922 124.222 40.6445 124.284 41.7773C124.034 41.9414 123.749 42.0586 123.429 42.1289C123.116 42.1992 122.749 42.2344 122.327 42.2344C121.647 42.2344 121.054 42.1523 120.546 41.9883C120.038 41.8164 119.624 41.5781 119.304 41.2734C119.366 40.0781 119.499 38.8242 119.702 37.5117C119.913 36.1914 120.159 35.125 120.44 34.3125C120.151 33.4453 119.897 32.457 119.679 31.3477C119.468 30.2305 119.233 28.8711 118.975 27.2695L118.706 25.6055Z" fill="white"/>
<path d="M136.947 37.3711C135.759 30.4805 135.166 26.4375 135.166 25.2422C135.259 25.0391 135.455 24.8477 135.752 24.668C136.048 24.4883 136.4 24.3477 136.806 24.2461C137.213 24.1367 137.619 24.082 138.025 24.082C138.361 24.082 138.716 24.1289 139.091 24.2227C139.466 24.3086 139.767 24.4297 139.994 24.5859L138.986 37.9219C139.345 38.3594 139.623 38.7617 139.818 39.1289C140.013 39.4961 140.158 39.9414 140.252 40.4648C140.002 41.0664 139.599 41.5156 139.045 41.8125C138.498 42.1016 137.857 42.2461 137.123 42.2461C136.537 42.2461 135.923 42.1719 135.283 42.0234C134.65 41.8828 134.173 41.6836 133.853 41.4258C133.83 41.293 133.818 41.1211 133.818 40.9102C133.818 40.5977 133.841 40.2773 133.888 39.9492C133.943 39.6133 134.021 39.3398 134.123 39.1289L129.002 28.2891L128.943 28.3125C129.099 28.8281 129.353 29.7812 129.705 31.1719C130.056 32.5547 130.392 33.9922 130.713 35.4844C131.041 36.9766 131.252 38.1797 131.345 39.0938C131.361 39.3281 131.369 39.5039 131.369 39.6211C131.369 40.4102 131.166 41.043 130.759 41.5195C130.361 41.9961 129.736 42.2344 128.884 42.2344C128.181 42.2344 127.529 42.0625 126.927 41.7188C126.326 41.375 125.888 40.9141 125.615 40.3359L125.978 38.4258L127.279 38.5312L127.185 28.2305C126.818 28.207 126.455 28.1484 126.095 28.0547C125.744 27.9531 125.431 27.8125 125.158 27.6328C125.158 26.7891 125.287 26.043 125.545 25.3945C125.81 24.7461 126.302 24.2305 127.021 23.8477C127.787 23.9414 128.673 24.1484 129.681 24.4688C130.689 24.7891 131.58 25.2227 132.353 25.7695L136.9 37.418L136.947 37.3711Z" fill="white"/>
<path d="M147.852 38.8594C147.953 38.3359 148.004 37.8945 148.004 37.5352C148.004 37.1992 147.969 36.9141 147.899 36.6797C147.368 36.5312 146.633 36.2344 145.696 35.7891C144.766 35.3359 143.895 34.8438 143.082 34.3125C142.278 33.7734 141.754 33.293 141.512 32.8711C141.426 32.5586 141.356 32.1094 141.301 31.5234C141.246 30.9375 141.188 30.1602 141.125 29.1914C141.086 28.4883 141.043 27.8984 140.996 27.4219C141.535 26.5547 142.153 25.8438 142.848 25.2891C143.543 24.7266 144.36 24.2461 145.297 23.8477C145.735 23.9805 146.469 24.3203 147.5 24.8672L147.993 25.125L151.743 24.9492C151.875 25.457 151.942 25.9648 151.942 26.4727C151.942 27.1367 151.84 27.75 151.637 28.3125C151.442 28.875 151.207 29.3398 150.934 29.707C150.66 30.0664 150.422 30.2969 150.219 30.3984C149.836 30.3203 149.379 30.168 148.848 29.9414C148.317 29.707 147.766 29.4102 147.196 29.0508C146.633 28.6836 146.129 28.2812 145.684 27.8438H145.532L145.086 30.3047C145.61 30.6094 146.325 31.082 147.231 31.7227C148.137 32.3555 149.024 33.043 149.891 33.7852C150.766 34.5273 151.41 35.2031 151.825 35.8125C151.832 35.875 151.836 35.9688 151.836 36.0938C151.836 36.6172 151.75 37.2617 151.578 38.0273C151.414 38.7852 151.243 39.4531 151.063 40.0312C150.555 40.5391 150.059 40.9766 149.575 41.3438C149.098 41.7031 148.575 42 148.004 42.2344C147.418 42.1719 146.285 42.0469 144.606 41.8594C142.926 41.6719 142.114 41.5742 142.168 41.5664C141.668 40.6992 141.418 39.8516 141.418 39.0234C141.418 38.6328 141.461 38.293 141.547 38.0039C141.633 37.7148 141.711 37.4961 141.782 37.3477C141.86 37.1914 141.907 37.0938 141.922 37.0547C143.532 37.1719 145.274 37.8711 147.149 39.1523L147.852 38.8594Z" fill="white"/>
<path d="M70.8789 15.8984C70.8555 16.4688 70.7227 17.0547 70.4805 17.6562C70.2461 18.25 69.9727 18.7617 69.6602 19.1914C69.4102 19.5352 69.1055 19.7969 68.7461 19.9766C68.3867 20.1484 67.9844 20.2344 67.5391 20.2344C67.1172 20.2344 66.6406 20.1484 66.1094 19.9766C64.8125 19.5625 64.0039 17.7539 63.6836 14.5508L60.543 14.1289C60.7617 14.6445 60.9727 15.4805 61.1758 16.6367C61.3867 17.793 61.5273 18.8086 61.5977 19.6836C61.332 19.8633 61.0195 20 60.6602 20.0938C60.3008 20.1875 59.9258 20.2344 59.5352 20.2344C58.9414 20.2344 58.375 20.1406 57.8359 19.9531C57.2969 19.7656 56.8867 19.5117 56.6055 19.1914C56.7852 18.3164 56.9414 17.6406 57.0742 17.1641C57.207 16.6875 57.3711 16.1875 57.5664 15.6641C57.3789 15.2812 57.1641 14.2539 56.9219 12.582C56.6875 10.9023 56.4766 9.14453 56.2891 7.30859C56.1094 5.46484 56.0195 4.30078 56.0195 3.81641L56.0312 3.67578C56.3828 3.19922 56.8555 2.81641 57.4492 2.52734C58.043 2.23047 58.6562 2.08203 59.2891 2.08203C60.0078 2.08203 60.6484 2.27344 61.2109 2.65625L60.0977 8.48047L60.4375 8.64453L63.5664 2.05859C63.7305 2.01172 63.9531 1.96875 64.2344 1.92969C64.5234 1.88281 64.8203 1.85938 65.125 1.85938C65.4531 1.85938 65.8555 1.92188 66.332 2.04688C66.8164 2.17188 67.3203 2.36328 67.8438 2.62109C68.3672 2.87109 68.8477 3.17969 69.2852 3.54688C69.3008 4.71875 69.2109 6.02734 69.0156 7.47266C68.8281 8.91016 68.543 10.2617 68.1602 11.5273C67.707 12.1992 67.1133 12.8438 66.3789 13.4609C66.6211 13.9141 66.8633 14.3281 67.1055 14.7031C67.3555 15.0703 67.6328 15.4062 67.9375 15.7109C68.3594 15.5625 68.8945 15.2266 69.543 14.7031L70.8789 15.8984ZM64.1406 6.51172C63.6094 7.32422 62.9766 8.32812 62.2422 9.52344C61.5078 10.7188 61.0078 11.5859 60.7422 12.125L64.4453 11.8672C64.6484 10.5469 64.75 9.22266 64.75 7.89453C64.75 7.40234 64.7305 6.97266 64.6914 6.60547L64.1406 6.51172Z" fill="white"/>
<path d="M84.1862 5.26953C84.2722 6.04297 84.3152 6.8125 84.3152 7.57812C84.3152 8.41406 84.2605 9.54688 84.1511 10.9766C84.0417 12.4062 83.905 13.7695 83.7409 15.0664C83.5769 16.3633 83.4245 17.2656 83.2839 17.7734C83.2136 18.0312 83.0261 18.2656 82.7214 18.4766C82.4245 18.6797 82.0222 18.9062 81.5144 19.1562C81.4675 19.1797 81.4128 19.207 81.3503 19.2383C81.2956 19.2617 81.237 19.2891 81.1745 19.3203C80.6042 19.6094 80.112 19.8281 79.698 19.9766C79.2839 20.1172 78.8737 20.207 78.4675 20.2461C77.8894 20.2148 77.2136 20.1016 76.4402 19.9062C75.6667 19.7031 74.9362 19.457 74.2487 19.168C73.5691 18.8711 73.0612 18.5742 72.7253 18.2773C72.5066 16.8867 72.2995 15.0156 72.1042 12.6641C71.9167 10.3047 71.823 8.52734 71.823 7.33203C71.823 6.84766 71.8308 6.46484 71.8464 6.18359L70.2058 5.63281C70.2683 4.80469 70.4597 4.0625 70.78 3.40625C71.1081 2.75 71.6472 2.23047 72.3972 1.84766C73.3425 1.96484 74.7761 2.75781 76.698 4.22656L76.6628 4.25L76.698 4.23828L76.405 6.24219L76.3933 10.7891C76.3933 13.2969 76.4519 15.1523 76.5691 16.3555C77.4519 16.8711 78.4284 17.1953 79.4987 17.3281C79.5456 16.9219 79.5808 16.3125 79.6042 15.5C79.6277 14.6875 79.6394 13.8984 79.6394 13.1328C79.6394 11.9531 79.6159 10.6406 79.5691 9.19531C79.5222 7.74219 79.4636 6.65234 79.3933 5.92578L77.4714 5.38672C77.5417 4.62891 77.7917 3.92578 78.2214 3.27734C78.6511 2.62109 79.2409 2.14453 79.9909 1.84766C80.3894 1.90234 80.9714 2.08984 81.737 2.41016C82.5027 2.73047 83.2409 3.08984 83.9519 3.48828L84.0925 4.50781V4.51953L84.1277 4.82422L84.1862 5.26953Z" fill="white"/>
<path d="M99.0053 5.63281C99.06 6.10156 99.0952 6.49219 99.1108 6.80469C99.1342 7.10938 99.1459 7.61719 99.1459 8.32812C99.1459 8.9375 99.0912 9.91016 98.9819 11.2461C98.8725 12.582 98.7358 13.8828 98.5717 15.1484C98.4077 16.4062 98.2553 17.2812 98.1147 17.7734C98.0366 18.0547 97.7084 18.3789 97.1303 18.7461C96.5522 19.1133 95.892 19.4414 95.1498 19.7305C94.4155 20.0195 93.7983 20.1914 93.2983 20.2461C92.728 19.9336 92.2006 19.5273 91.7162 19.0273C91.2319 18.5273 90.8959 18.0703 90.7084 17.6562C90.2787 18.3906 89.8412 18.9961 89.3959 19.4727C88.9506 19.9414 88.4272 20.1953 87.8256 20.2344C87.5053 20.0781 87.1655 19.7852 86.8061 19.3555C86.4467 18.9258 86.1381 18.4492 85.8803 17.9258C85.6225 17.4023 85.478 16.9258 85.4467 16.4961L86.4897 15.043C86.7866 14.9336 87.1655 14.8789 87.6264 14.8789H88.0131C87.7631 13.4102 87.5678 12.0781 87.4272 10.8828C87.2944 9.67969 87.1655 8.34766 87.0405 6.88672L86.9467 5.82031L84.8022 5.63281C84.8647 4.76562 85.0053 4.01172 85.2241 3.37109C85.4506 2.73047 85.8373 2.22266 86.3842 1.84766L94.728 2.55078C95.4623 2.89453 96.2241 3.34766 97.0131 3.91016C97.81 4.46484 98.4741 5.03906 99.0053 5.63281ZM94.4702 13.1328C94.4702 10.2969 94.4037 8.17578 94.2709 6.76953L91.435 6.17188L91.0131 15.3477L91.2123 15.3828L94.3881 16.3438C94.4428 15.2344 94.4702 14.1641 94.4702 13.1328Z" fill="white"/>
<path d="M109.945 1.84766C110.313 2.05859 110.59 2.39453 110.778 2.85547C110.965 3.31641 111.059 3.83203 111.059 4.40234C111.059 5.04297 110.945 5.65625 110.719 6.24219C110.5 6.82812 110.203 7.26562 109.828 7.55469C109.25 7.5 108.625 7.39453 107.953 7.23828C107.289 7.07422 106.254 6.80078 104.848 6.41797L104.332 6.27734L104.789 10.0273C105.68 9.92578 106.418 9.82422 107.004 9.72266C107.59 9.62109 108.313 9.48047 109.172 9.30078C109.195 9.29297 109.504 9.22656 110.098 9.10156C110.41 9.57812 110.567 10.1719 110.567 10.8828C110.567 11.3594 110.504 11.8203 110.379 12.2656C110.254 12.7031 110.117 13 109.969 13.1562C109.735 13.1797 109.5 13.1914 109.266 13.1914C108.461 13.1914 107.676 13.1133 106.91 12.957C106.153 12.8008 105.477 12.5547 104.883 12.2188L104.719 16.3789L108.082 16.4961L109.043 14.2695L111.153 14.4453C111.27 14.7656 111.371 15.2617 111.457 15.9336C111.551 16.5977 111.598 17.1992 111.598 17.7383C111.285 18.3711 110.875 18.9062 110.367 19.3438C109.867 19.7734 109.297 20.0703 108.656 20.2344C107.641 20.2031 106.391 20.082 104.906 19.8711C103.43 19.6523 102.258 19.4297 101.391 19.2031C100.774 18.4688 100.41 17.7031 100.301 16.9062L102.153 12.0195L99.3048 5.17578C99.3048 4.66797 99.4963 4.11719 99.8791 3.52344C100.262 2.92188 100.707 2.44531 101.215 2.09375L105.117 2.94922L109.945 1.84766Z" fill="white"/>
<path d="M121.19 7.32031L120.968 7.13281C120.475 6.71094 120.081 6.33984 119.784 6.01953C119.487 5.69141 119.21 5.26562 118.952 4.74219C119.171 4.17188 119.518 3.67969 119.995 3.26562C120.472 2.85156 121.007 2.52734 121.6 2.29297C122.202 2.05859 122.804 1.90234 123.405 1.82422C124.038 2.33203 124.554 3.05469 124.952 3.99219C125.358 4.92188 125.597 5.85547 125.667 6.79297L121.343 16.9648C121.647 17.6758 121.886 18.5273 122.057 19.5195C121.753 19.7617 121.331 19.9453 120.792 20.0703C120.261 20.1953 119.679 20.2578 119.046 20.2578C118.343 20.2578 117.675 20.1836 117.042 20.0352C116.409 19.8945 115.94 19.7031 115.636 19.4609C115.706 18.5078 115.905 17.5859 116.233 16.6953L113.104 7.51953L111.054 4.91797C111.116 4.32422 111.304 3.81641 111.616 3.39453C111.929 2.96484 112.319 2.64062 112.788 2.42188C113.265 2.19531 113.765 2.08203 114.288 2.08203C115.085 2.08203 115.78 2.30469 116.374 2.75C116.499 3 116.78 3.99609 117.218 5.73828C117.655 7.47266 118.073 9.32031 118.472 11.2812C118.87 13.2422 119.116 14.8086 119.21 15.9805L121.19 7.32031Z" fill="white"/>
<path d="M126.095 3.60547C126.244 3.37109 126.505 3.13672 126.88 2.90234C127.255 2.66797 127.701 2.47266 128.216 2.31641C128.74 2.16016 129.275 2.08203 129.822 2.08203C130.603 2.08203 131.252 2.23828 131.767 2.55078L130.853 13.168C131.048 14.0977 131.216 15.1484 131.357 16.3203C131.505 17.4922 131.611 18.6445 131.673 19.7773C131.423 19.9414 131.138 20.0586 130.818 20.1289C130.505 20.1992 130.138 20.2344 129.716 20.2344C129.037 20.2344 128.443 20.1523 127.935 19.9883C127.427 19.8164 127.013 19.5781 126.693 19.2734C126.755 18.0781 126.888 16.8242 127.091 15.5117C127.302 14.1914 127.548 13.125 127.83 12.3125C127.541 11.4453 127.287 10.457 127.068 9.34766C126.857 8.23047 126.623 6.87109 126.365 5.26953L126.095 3.60547Z" fill="white"/>
<path d="M138.196 6.28906C138.235 6.77344 138.254 7.3125 138.254 7.90625C138.254 9.11719 138.196 10.5469 138.078 12.1953C137.969 13.8438 137.852 15.1953 137.727 16.25C138.024 16.2109 138.379 16.1172 138.793 15.9688C139.207 15.8203 139.899 15.5586 140.868 15.1836C141.696 14.8633 142.321 14.625 142.743 14.4688L143.621 16.4258C143.332 16.918 142.887 17.4414 142.285 17.9961C141.684 18.5508 140.977 19.0391 140.164 19.4609C139.36 19.8828 138.528 20.1406 137.668 20.2344C137.301 20.2344 136.868 20.0977 136.368 19.8242C135.875 19.5508 135.403 19.2383 134.95 18.8867C134.692 18.6836 134.504 18.4961 134.387 18.3242C134.27 18.1445 134.196 17.9531 134.164 17.75C134.071 15.8672 133.977 14.2227 133.883 12.8164C133.672 9.51953 133.465 7.33984 133.262 6.27734C133.215 6.01172 133.192 5.5625 133.192 4.92969C133.285 4.57031 133.508 4.18359 133.86 3.76953C134.219 3.35547 134.641 2.97656 135.125 2.63281C135.61 2.28125 136.082 2.01953 136.543 1.84766C136.91 1.91797 137.418 2.06641 138.067 2.29297C138.723 2.51953 139.227 2.72266 139.578 2.90234L143.282 2.64453C143.383 3.12891 143.434 3.60547 143.434 4.07422C143.434 4.76172 143.336 5.40234 143.141 5.99609C142.953 6.58203 142.727 7.06641 142.461 7.44922C142.203 7.83203 141.973 8.07031 141.77 8.16406C140.645 7.69531 139.547 6.98438 138.477 6.03125L138.196 6.28906Z" fill="white"/>
<path d="M151.022 16.8594C151.124 16.3359 151.175 15.8945 151.175 15.5352C151.175 15.1992 151.14 14.9141 151.069 14.6797C150.538 14.5312 149.804 14.2344 148.866 13.7891C147.937 13.3359 147.065 12.8438 146.253 12.3125C145.448 11.7734 144.925 11.293 144.683 10.8711C144.597 10.5586 144.526 10.1094 144.472 9.52344C144.417 8.9375 144.358 8.16016 144.296 7.19141C144.257 6.48828 144.214 5.89844 144.167 5.42188C144.706 4.55469 145.323 3.84375 146.019 3.28906C146.714 2.72656 147.53 2.24609 148.468 1.84766C148.905 1.98047 149.64 2.32031 150.671 2.86719L151.163 3.125L154.913 2.94922C155.046 3.45703 155.112 3.96484 155.112 4.47266C155.112 5.13672 155.011 5.75 154.808 6.3125C154.612 6.875 154.378 7.33984 154.105 7.70703C153.831 8.06641 153.593 8.29688 153.39 8.39844C153.007 8.32031 152.55 8.16797 152.019 7.94141C151.487 7.70703 150.937 7.41016 150.366 7.05078C149.804 6.68359 149.3 6.28125 148.855 5.84375H148.702L148.257 8.30469C148.78 8.60938 149.495 9.08203 150.401 9.72266C151.308 10.3555 152.194 11.043 153.062 11.7852C153.937 12.5273 154.581 13.2031 154.995 13.8125C155.003 13.875 155.007 13.9688 155.007 14.0938C155.007 14.6172 154.921 15.2617 154.749 16.0273C154.585 16.7852 154.413 17.4531 154.233 18.0312C153.726 18.5391 153.23 18.9766 152.745 19.3438C152.269 19.7031 151.745 20 151.175 20.2344C150.589 20.1719 149.456 20.0469 147.776 19.8594C146.097 19.6719 145.284 19.5742 145.339 19.5664C144.839 18.6992 144.589 17.8516 144.589 17.0234C144.589 16.6328 144.632 16.293 144.718 16.0039C144.804 15.7148 144.882 15.4961 144.952 15.3477C145.03 15.1914 145.077 15.0938 145.093 15.0547C146.702 15.1719 148.444 15.8711 150.319 17.1523L151.022 16.8594Z" fill="white"/>
<path d="M46.1793 31.9444C42.8989 38.7524 35.9907 43.4444 28 43.4444C20.0092 43.4444 13.101 38.7524 9.82188 31.9444H7.04672C10.4951 40.204 18.5794 46 28 46C37.4206 46 45.5036 40.204 48.9533 31.9444H46.1793ZM13.3234 8.94444C17.0067 5.00889 22.2198 2.55556 28 2.55556C33.7802 2.55556 38.9932 5.00889 42.6766 8.94444H45.9987C41.8404 3.50367 35.325 0 28 0C20.6749 0 14.1596 3.50367 10.0012 8.94444H13.3234ZM16.6316 23C18.0274 23 19.1579 21.5689 19.1579 19.8056C19.1579 18.0422 18.0274 16.6111 16.6316 16.6111C15.2358 16.6111 14.1052 18.0422 14.1052 19.8056C14.1052 21.5689 15.2358 23 16.6316 23ZM41.8947 19.8056C41.8947 21.5689 40.7642 23 39.3684 23C37.9726 23 36.8421 21.5689 36.8421 19.8056C36.8421 18.0422 37.9726 16.6111 39.3684 16.6111C40.7642 16.6111 41.8947 18.0422 41.8947 19.8056Z" fill="white"/>
<path fill-rule="evenodd" clip-rule="evenodd" d="M26.3364 17.0967C26.3761 16.6795 26.365 16.2589 26.3036 15.8445H29.6964C29.6349 16.2589 29.6239 16.6795 29.6636 17.0967L30.3861 24.7633C30.5055 26.0289 31.0868 27.204 32.0166 28.0593C32.9465 28.9146 34.158 29.3886 35.4147 29.3889H45.6842C47.0243 29.3889 48.3094 28.8504 49.257 27.8919C50.2045 26.9334 50.7368 25.6333 50.7368 24.2778V17.8889H52V11.5H34.6947C33.1486 11.5 31.7768 12.1977 30.8547 13.2889H25.1453C24.6717 12.7269 24.0829 12.2759 23.4199 11.967C22.7568 11.6581 22.0353 11.4988 21.3053 11.5H4V17.8889H5.26316V24.2778C5.26316 25.6333 5.79549 26.9334 6.74304 27.8919C7.69059 28.8504 8.97575 29.3889 10.3158 29.3889H20.5853C21.842 29.3886 23.0535 28.9146 23.9833 28.0593C24.9132 27.204 25.4945 26.0289 25.6139 24.7633L26.3364 17.0967ZM10.3158 14.0556C9.64577 14.0556 9.00319 14.3248 8.52941 14.8041C8.05564 15.2833 7.78947 15.9333 7.78947 16.6111V24.2778C7.78947 24.9556 8.05564 25.6056 8.52941 26.0848C9.00319 26.5641 9.64577 26.8333 10.3158 26.8333H20.5853C21.2135 26.833 21.8191 26.5959 22.2839 26.1683C22.7487 25.7407 23.0393 25.1532 23.0989 24.5206L23.8215 16.8539C23.8549 16.4993 23.8147 16.1416 23.7035 15.8037C23.5922 15.4657 23.4124 15.155 23.1754 14.8916C22.9385 14.6281 22.6498 14.4176 22.3277 14.2736C22.0056 14.1296 21.6574 14.0554 21.3053 14.0556H10.3158ZM32.1785 16.8539C32.1451 16.4993 32.1853 16.1416 32.2965 15.8037C32.4078 15.4657 32.5876 15.155 32.8246 14.8916C33.0615 14.6281 33.3502 14.4176 33.6723 14.2736C33.9944 14.1296 34.3426 14.0554 34.6947 14.0556H45.6842C46.3542 14.0556 46.9968 14.3248 47.4706 14.8041C47.9444 15.2833 48.2105 15.9333 48.2105 16.6111V24.2778C48.2105 24.9556 47.9444 25.6056 47.4706 26.0848C46.9968 26.5641 46.3542 26.8333 45.6842 26.8333H35.4147C34.7865 26.833 34.1809 26.5959 33.7161 26.1683C33.2513 25.7407 32.9607 25.1532 32.9011 24.5206L32.1785 16.8539Z" fill="white"/>
<path d="M34.7579 35.0584C34.9133 34.9997 35.0558 34.9105 35.1772 34.7961C35.2985 34.6817 35.3964 34.5442 35.4653 34.3915C35.5342 34.2388 35.5726 34.0739 35.5784 33.9061C35.5843 33.7384 35.5574 33.5711 35.4993 33.4139C35.4413 33.2567 35.3532 33.1125 35.2401 32.9898C35.1269 32.867 34.991 32.7679 34.8401 32.6983C34.6891 32.6286 34.5261 32.5897 34.3603 32.5838C34.1944 32.5779 34.0291 32.6051 33.8737 32.6638C31.2716 33.6452 29.4185 34.1282 27.7132 34.1486C26.037 34.1703 24.3937 33.7461 22.2248 32.706C21.922 32.561 21.5746 32.5436 21.259 32.6576C20.9435 32.7717 20.6857 33.0079 20.5423 33.3142C20.3989 33.6206 20.3817 33.972 20.4945 34.2912C20.6072 34.6104 20.8407 34.8712 21.1436 35.0162C23.5309 36.1598 25.5633 36.731 27.7448 36.7042C29.896 36.6773 32.08 36.0678 34.7566 35.0584H34.7579Z" fill="white"/>
</g>
<defs>
<filter id="filter0_d_31_6" x="0" y="0" width="159.112" height="56" filterUnits="userSpaceOnUse" color-interpolation-filters="sRGB">
<feFlood flood-opacity="0" result="BackgroundImageFix"/>
<feColorMatrix in="SourceAlpha" type="matrix" values="0 0 0 0 0 0 0 0 0 0 0 0 0 0 0 0 0 0 127 0" result="hardAlpha"/>
<feOffset dy="6"/>
<feGaussianBlur stdDeviation="2"/>
<feComposite in2="hardAlpha" operator="out"/>
<feColorMatrix type="matrix" values="0 0 0 0 0 0 0 0 0 0 0 0 0 0 0 0 0 0 0.4 0"/>
<feBlend mode="normal" in2="BackgroundImageFix" result="effect1_dropShadow_31_6"/>
<feBlend mode="normal" in="SourceGraphic" in2="effect1_dropShadow_31_6" result="shape"/>
</filter>
</defs>
</svg>
